{
	"asset":{
		"generator":"Khronos glTF Blender I/O v4.4.55",
		"version":"2.0"
	},
	"extensionsUsed":[
		"KHR_materials_sheen"
	],
	"scene":0,
	"scenes":[
		{
			"name":"Scene",
			"nodes":[
				0
			]
		}
	],
	"nodes":[
		{
			"mesh":0,
			"name":"Simple white door"
		}
	],
	"materials":[
		{
			"doubleSided":true,
			"name":"Door_paint.001",
			"pbrMetallicRoughness":{
				"baseColorFactor":[
					0.699999988079071,
					0.699999988079071,
					0.699999988079071,
					1
				],
				"metallicFactor":0
			}
		},
		{
			"doubleSided":true,
			"extensions":{
				"KHR_materials_sheen":{
					"sheenColorFactor":[
						0.8000069856643677,
						0.7359076738357544,
						0.6400055885314941
					],
					"sheenRoughnessFactor":0.5
				}
			},
			"name":"Door_brass.001",
			"pbrMetallicRoughness":{
				"baseColorFactor":[
					0.8000074625015259,
					0.64108806848526,
					0.4033202528953552,
					1
				],
				"roughnessFactor":0.20000000298023224
			}
		}
	],
	"meshes":[
		{
			"name":"Cube.002",
			"primitives":[
				{
					"attributes":{
						"POSITION":0,
						"NORMAL":1,
						"TEXCOORD_0":2
					},
					"indices":3,
					"material":0
				},
				{
					"attributes":{
						"POSITION":4,
						"NORMAL":5,
						"TEXCOORD_0":6
					},
					"indices":7,
					"material":1
				}
			]
		}
	],
	"accessors":[
		{
			"bufferView":0,
			"componentType":5126,
			"count":144,
			"max":[
				0.4999999701976776,
				2.200000047683716,
				0.12000002712011337
			],
			"min":[
				-0.5000001192092896,
				0,
				-0.12000002712011337
			],
			"type":"VEC3"
		},
		{
			"bufferView":1,
			"componentType":5126,
			"count":144,
			"type":"VEC3"
		},
		{
			"bufferView":2,
			"componentType":5126,
			"count":144,
			"type":"VEC2"
		},
		{
			"bufferView":3,
			"componentType":5123,
			"count":324,
			"type":"SCALAR"
		},
		{
			"bufferView":4,
			"componentType":5126,
			"count":1239,
			"max":[
				0.45877358317375183,
				2.01391863822937,
				0.13877327740192413
			],
			"min":[
				0.4400002658367157,
				0.11927033215761185,
				0.1199999675154686
			],
			"type":"VEC3"
		},
		{
			"bufferView":5,
			"componentType":5126,
			"count":1239,
			"type":"VEC3"
		},
		{
			"bufferView":6,
			"componentType":5126,
			"count":1239,
			"type":"VEC2"
		},
		{
			"bufferView":7,
			"componentType":5123,
			"count":4896,
			"type":"SCALAR"
		}
	],
	"bufferViews":[
		{
			"buffer":0,
			"byteLength":1728,
			"byteOffset":0,
			"target":34962
		},
		{
			"buffer":0,
			"byteLength":1728,
			"byteOffset":1728,
			"target":34962
		},
		{
			"buffer":0,
			"byteLength":1152,
			"byteOffset":3456,
			"target":34962
		},
		{
			"buffer":0,
			"byteLength":648,
			"byteOffset":4608,
			"target":34963
		},
		{
			"buffer":0,
			"byteLength":14868,
			"byteOffset":5256,
			"target":34962
		},
		{
			"buffer":0,
			"byteLength":14868,
			"byteOffset":20124,
			"target":34962
		},
		{
			"buffer":0,
			"byteLength":9912,
			"byteOffset":34992,
			"target":34962
		},
		{
			"buffer":0,
			"byteLength":9792,
			"byteOffset":44904,
			"target":34963
		}
	],
	"buffers":[
		{
			"byteLength":54696,
			"uri":"DoorFrame.bin"
		}
	]
}
