{
	"asset":{
		"generator":"Khronos glTF Blender I/O v4.3.47",
		"version":"2.0"
	},
	"scene":0,
	"scenes":[
		{
			"name":"Scene",
			"nodes":[
				7
			]
		}
	],
	"nodes":[
		{
			"mesh":0,
			"name":"Door.001"
		},
		{
			"mesh":1,
			"name":"Handle",
			"rotation":[
				0.7071068286895752,
				0,
				0,
				0.7071068286895752
			],
			"scale":[
				0.10432469844818115,
				0.10432469844818115,
				0.10432469844818115
			],
			"translation":[
				0.767664909362793,
				-0.03795444965362549,
				-0.021681301295757294
			]
		},
		{
			"mesh":2,
			"name":"Handle Base",
			"rotation":[
				0.7071068286895752,
				0,
				0,
				0.7071068286895752
			],
			"scale":[
				0.10432469844818115,
				0.10432469844818115,
				0.10432469844818115
			]
		},
		{
			"mesh":3,
			"name":"Hinge Door Side.002",
			"translation":[
				0,
				-0.8675881624221802,
				0
			]
		},
		{
			"mesh":4,
			"name":"Latch",
			"translation":[
				0.4069931209087372,
				-0.03795444965362549,
				-0.021681301295757294
			]
		},
		{
			"mesh":5,
			"name":"Latch.001",
			"translation":[
				0.4069931209087372,
				-0.03795444965362549,
				-0.021681301295757294
			]
		},
		{
			"children":[
				0,
				1,
				2,
				3,
				4,
				5
			],
			"name":"Door",
			"translation":[
				-0.4069931209087372,
				1.0539543628692627,
				0.060560181736946106
			]
		},
		{
			"children":[
				6
			],
			"name":"Animated Interior Door"
		}
	],
	"animations":[
		{
			"channels":[
				{
					"sampler":0,
					"target":{
						"node":6,
						"path":"translation"
					}
				},
				{
					"sampler":1,
					"target":{
						"node":6,
						"path":"rotation"
					}
				}
			],
			"name":"DoorAction.002",
			"samplers":[
				{
					"input":32,
					"interpolation":"STEP",
					"output":33
				},
				{
					"input":34,
					"interpolation":"LINEAR",
					"output":35
				}
			]
		}
	],
	"materials":[
		{
			"doubleSided":true,
			"name":"Material.008",
			"pbrMetallicRoughness":{
				"baseColorFactor":[
					0.800000011920929,
					0.800000011920929,
					0.800000011920929,
					1
				],
				"metallicFactor":0,
				"roughnessFactor":0.30000001192092896
			}
		},
		{
			"doubleSided":true,
			"name":"Door Handle.002",
			"pbrMetallicRoughness":{
				"baseColorFactor":[
					0.800000011920929,
					0.800000011920929,
					0.800000011920929,
					1
				],
				"roughnessFactor":0.27586206793785095
			}
		},
		{
			"doubleSided":true,
			"name":"Material.007",
			"pbrMetallicRoughness":{
				"baseColorFactor":[
					0.03919622302055359,
					0.03919622302055359,
					0.03919622302055359,
					1
				],
				"roughnessFactor":0.5
			}
		}
	],
	"meshes":[
		{
			"name":"Cube.013",
			"primitives":[
				{
					"attributes":{
						"POSITION":0,
						"NORMAL":1,
						"TEXCOORD_0":2
					},
					"indices":3,
					"material":0
				},
				{
					"attributes":{
						"POSITION":4,
						"NORMAL":5,
						"TEXCOORD_0":6
					},
					"indices":7,
					"material":0
				}
			]
		},
		{
			"name":"Cylinder.009",
			"primitives":[
				{
					"attributes":{
						"POSITION":8,
						"NORMAL":9,
						"TEXCOORD_0":10
					},
					"indices":11,
					"material":1
				}
			]
		},
		{
			"name":"Cylinder.008",
			"primitives":[
				{
					"attributes":{
						"POSITION":12,
						"NORMAL":13,
						"TEXCOORD_0":14
					},
					"indices":15,
					"material":1
				}
			]
		},
		{
			"name":"Cylinder.007",
			"primitives":[
				{
					"attributes":{
						"POSITION":16,
						"NORMAL":17,
						"TEXCOORD_0":18
					},
					"indices":19,
					"material":1
				}
			]
		},
		{
			"name":"Cube.012",
			"primitives":[
				{
					"attributes":{
						"POSITION":20,
						"NORMAL":21,
						"TEXCOORD_0":22
					},
					"indices":23,
					"material":1
				},
				{
					"attributes":{
						"POSITION":24,
						"NORMAL":25,
						"TEXCOORD_0":26
					},
					"indices":27,
					"material":2
				}
			]
		},
		{
			"name":"Cube.011",
			"primitives":[
				{
					"attributes":{
						"POSITION":28,
						"NORMAL":29,
						"TEXCOORD_0":30
					},
					"indices":31,
					"material":1
				}
			]
		}
	],
	"accessors":[
		{
			"bufferView":0,
			"componentType":5126,
			"count":2062,
			"max":[
				0.8133931159973145,
				0.978045642375946,
				-0.002631301060318947
			],
			"min":[
				0.0005931258201599121,
				-1.0539544820785522,
				-0.04073130339384079
			],
			"type":"VEC3"
		},
		{
			"bufferView":1,
			"componentType":5126,
			"count":2062,
			"type":"VEC3"
		},
		{
			"bufferView":2,
			"componentType":5126,
			"count":2062,
			"type":"VEC2"
		},
		{
			"bufferView":3,
			"componentType":5123,
			"count":6480,
			"type":"SCALAR"
		},
		{
			"bufferView":4,
			"componentType":5126,
			"count":20,
			"max":[
				0.8133931159973145,
				-0.0087518859654665,
				-0.008093594573438168
			],
			"min":[
				0.7882239818572998,
				-0.06715694069862366,
				-0.035269007086753845
			],
			"type":"VEC3"
		},
		{
			"bufferView":5,
			"componentType":5126,
			"count":20,
			"type":"VEC3"
		},
		{
			"bufferView":6,
			"componentType":5126,
			"count":20,
			"type":"VEC2"
		},
		{
			"bufferView":7,
			"componentType":5123,
			"count":36,
			"type":"SCALAR"
		},
		{
			"bufferView":8,
			"componentType":5126,
			"count":586,
			"max":[
				0.1194302961230278,
				0.6817089915275574,
				0.11943025887012482
			],
			"min":[
				-0.9979272484779358,
				-0.6817089915275574,
				-0.11943025887012482
			],
			"type":"VEC3"
		},
		{
			"bufferView":9,
			"componentType":5126,
			"count":586,
			"type":"VEC3"
		},
		{
			"bufferView":10,
			"componentType":5126,
			"count":586,
			"type":"VEC2"
		},
		{
			"bufferView":11,
			"componentType":5123,
			"count":3456,
			"type":"SCALAR"
		},
		{
			"bufferView":12,
			"componentType":5126,
			"count":1379,
			"max":[
				7.663219451904297,
				0.0860632061958313,
				0.6686104536056519
			],
			"min":[
				7.053619384765625,
				-0.5017135739326477,
				0.05901041626930237
			],
			"type":"VEC3"
		},
		{
			"bufferView":13,
			"componentType":5126,
			"count":1379,
			"type":"VEC3"
		},
		{
			"bufferView":14,
			"componentType":5126,
			"count":1379,
			"type":"VEC2"
		},
		{
			"bufferView":15,
			"componentType":5123,
			"count":6324,
			"type":"SCALAR"
		},
		{
			"bufferView":16,
			"componentType":5126,
			"count":3999,
			"max":[
				0.00317499041557312,
				1.7286710739135742,
				0.003132615238428116
			],
			"min":[
				-0.0031326711177825928,
				-0.07169663906097412,
				-0.03175000101327896
			],
			"type":"VEC3"
		},
		{
			"bufferView":17,
			"componentType":5126,
			"count":3999,
			"type":"VEC3"
		},
		{
			"bufferView":18,
			"componentType":5126,
			"count":3999,
			"type":"VEC2"
		},
		{
			"bufferView":19,
			"componentType":5123,
			"count":11880,
			"type":"SCALAR"
		},
		{
			"bufferView":20,
			"componentType":5126,
			"count":408,
			"max":[
				0.40639999508857727,
				0.029202526435256004,
				0.013587706722319126
			],
			"min":[
				0.38947176933288574,
				-0.029202526435256004,
				-0.013587706722319126
			],
			"type":"VEC3"
		},
		{
			"bufferView":21,
			"componentType":5126,
			"count":408,
			"type":"VEC3"
		},
		{
			"bufferView":22,
			"componentType":5126,
			"count":408,
			"type":"VEC2"
		},
		{
			"bufferView":23,
			"componentType":5123,
			"count":2334,
			"type":"SCALAR"
		},
		{
			"bufferView":24,
			"componentType":5126,
			"count":24,
			"max":[
				0.4051345884799957,
				0.020956380292773247,
				0.0018601346528157592
			],
			"min":[
				0.4051345884799957,
				-0.021814927458763123,
				-0.0018601390765979886
			],
			"type":"VEC3"
		},
		{
			"bufferView":25,
			"componentType":5126,
			"count":24,
			"type":"VEC3"
		},
		{
			"bufferView":26,
			"componentType":5126,
			"count":24,
			"type":"VEC2"
		},
		{
			"bufferView":27,
			"componentType":5123,
			"count":60,
			"type":"SCALAR"
		},
		{
			"bufferView":28,
			"componentType":5126,
			"count":125,
			"max":[
				0.4198445975780487,
				0.008019994013011456,
				0.0062848348170518875
			],
			"min":[
				0.38947176933288574,
				-0.008019994013011456,
				-0.0062848348170518875
			],
			"type":"VEC3"
		},
		{
			"bufferView":29,
			"componentType":5126,
			"count":125,
			"type":"VEC3"
		},
		{
			"bufferView":30,
			"componentType":5126,
			"count":125,
			"type":"VEC2"
		},
		{
			"bufferView":31,
			"componentType":5123,
			"count":678,
			"type":"SCALAR"
		},
		{
			"bufferView":32,
			"componentType":5126,
			"count":2,
			"max":[
				2.25
			],
			"min":[
				0.041666666666666664
			],
			"type":"SCALAR"
		},
		{
			"bufferView":33,
			"componentType":5126,
			"count":2,
			"type":"VEC3"
		},
		{
			"bufferView":34,
			"componentType":5126,
			"count":54,
			"max":[
				2.25
			],
			"min":[
				0.041666666666666664
			],
			"type":"SCALAR"
		},
		{
			"bufferView":35,
			"componentType":5126,
			"count":54,
			"type":"VEC4"
		}
	],
	"bufferViews":[
		{
			"buffer":0,
			"byteLength":24744,
			"byteOffset":0,
			"target":34962
		},
		{
			"buffer":0,
			"byteLength":24744,
			"byteOffset":24744,
			"target":34962
		},
		{
			"buffer":0,
			"byteLength":16496,
			"byteOffset":49488,
			"target":34962
		},
		{
			"buffer":0,
			"byteLength":12960,
			"byteOffset":65984,
			"target":34963
		},
		{
			"buffer":0,
			"byteLength":240,
			"byteOffset":78944,
			"target":34962
		},
		{
			"buffer":0,
			"byteLength":240,
			"byteOffset":79184,
			"target":34962
		},
		{
			"buffer":0,
			"byteLength":160,
			"byteOffset":79424,
			"target":34962
		},
		{
			"buffer":0,
			"byteLength":72,
			"byteOffset":79584,
			"target":34963
		},
		{
			"buffer":0,
			"byteLength":7032,
			"byteOffset":79656,
			"target":34962
		},
		{
			"buffer":0,
			"byteLength":7032,
			"byteOffset":86688,
			"target":34962
		},
		{
			"buffer":0,
			"byteLength":4688,
			"byteOffset":93720,
			"target":34962
		},
		{
			"buffer":0,
			"byteLength":6912,
			"byteOffset":98408,
			"target":34963
		},
		{
			"buffer":0,
			"byteLength":16548,
			"byteOffset":105320,
			"target":34962
		},
		{
			"buffer":0,
			"byteLength":16548,
			"byteOffset":121868,
			"target":34962
		},
		{
			"buffer":0,
			"byteLength":11032,
			"byteOffset":138416,
			"target":34962
		},
		{
			"buffer":0,
			"byteLength":12648,
			"byteOffset":149448,
			"target":34963
		},
		{
			"buffer":0,
			"byteLength":47988,
			"byteOffset":162096,
			"target":34962
		},
		{
			"buffer":0,
			"byteLength":47988,
			"byteOffset":210084,
			"target":34962
		},
		{
			"buffer":0,
			"byteLength":31992,
			"byteOffset":258072,
			"target":34962
		},
		{
			"buffer":0,
			"byteLength":23760,
			"byteOffset":290064,
			"target":34963
		},
		{
			"buffer":0,
			"byteLength":4896,
			"byteOffset":313824,
			"target":34962
		},
		{
			"buffer":0,
			"byteLength":4896,
			"byteOffset":318720,
			"target":34962
		},
		{
			"buffer":0,
			"byteLength":3264,
			"byteOffset":323616,
			"target":34962
		},
		{
			"buffer":0,
			"byteLength":4668,
			"byteOffset":326880,
			"target":34963
		},
		{
			"buffer":0,
			"byteLength":288,
			"byteOffset":331548,
			"target":34962
		},
		{
			"buffer":0,
			"byteLength":288,
			"byteOffset":331836,
			"target":34962
		},
		{
			"buffer":0,
			"byteLength":192,
			"byteOffset":332124,
			"target":34962
		},
		{
			"buffer":0,
			"byteLength":120,
			"byteOffset":332316,
			"target":34963
		},
		{
			"buffer":0,
			"byteLength":1500,
			"byteOffset":332436,
			"target":34962
		},
		{
			"buffer":0,
			"byteLength":1500,
			"byteOffset":333936,
			"target":34962
		},
		{
			"buffer":0,
			"byteLength":1000,
			"byteOffset":335436,
			"target":34962
		},
		{
			"buffer":0,
			"byteLength":1356,
			"byteOffset":336436,
			"target":34963
		},
		{
			"buffer":0,
			"byteLength":8,
			"byteOffset":337792
		},
		{
			"buffer":0,
			"byteLength":24,
			"byteOffset":337800
		},
		{
			"buffer":0,
			"byteLength":216,
			"byteOffset":337824
		},
		{
			"buffer":0,
			"byteLength":864,
			"byteOffset":338040
		}
	],
	"buffers":[
		{
			"byteLength":338904,
			"uri":"door.bin"
		}
	]
}
