{
	"asset":{
		"generator":"Khronos glTF Blender I/O v4.4.55",
		"version":"2.0"
	},
	"extensionsUsed":[
		"KHR_materials_sheen"
	],
	"scene":0,
	"scenes":[
		{
			"name":"Scene",
			"nodes":[
				1
			]
		}
	],
	"nodes":[
		{
			"mesh":0,
			"name":"Door_handle",
			"translation":[
				-0.8102733492851257,
				-0.06876957416534424,
				0.0306137353181839
			]
		},
		{
			"children":[
				0
			],
			"mesh":1,
			"name":"Door_main",
			"translation":[
				0.4493870437145233,
				1.0981695652008057,
				0.12938661873340607
			]
		}
	],
	"animations":[
		{
			"channels":[
				{
					"sampler":0,
					"target":{
						"node":1,
						"path":"translation"
					}
				},
				{
					"sampler":1,
					"target":{
						"node":1,
						"path":"rotation"
					}
				},
				{
					"sampler":2,
					"target":{
						"node":1,
						"path":"scale"
					}
				}
			],
			"name":"Door_mainAction",
			"samplers":[
				{
					"input":12,
					"interpolation":"STEP",
					"output":13
				},
				{
					"input":14,
					"interpolation":"LINEAR",
					"output":15
				},
				{
					"input":12,
					"interpolation":"STEP",
					"output":16
				}
			]
		},
		{
			"channels":[
				{
					"sampler":0,
					"target":{
						"node":0,
						"path":"translation"
					}
				},
				{
					"sampler":1,
					"target":{
						"node":0,
						"path":"rotation"
					}
				},
				{
					"sampler":2,
					"target":{
						"node":0,
						"path":"scale"
					}
				}
			],
			"name":"Door_handleAction",
			"samplers":[
				{
					"input":12,
					"interpolation":"STEP",
					"output":17
				},
				{
					"input":12,
					"interpolation":"STEP",
					"output":18
				},
				{
					"input":12,
					"interpolation":"STEP",
					"output":19
				}
			]
		}
	],
	"materials":[
		{
			"doubleSided":true,
			"extensions":{
				"KHR_materials_sheen":{
					"sheenColorFactor":[
						0.8000069856643677,
						0.7359076738357544,
						0.6400055885314941
					],
					"sheenRoughnessFactor":0.5
				}
			},
			"name":"Door_brass",
			"pbrMetallicRoughness":{
				"baseColorFactor":[
					0.8000074625015259,
					0.64108806848526,
					0.4033202528953552,
					1
				],
				"roughnessFactor":0.20000000298023224
			}
		},
		{
			"doubleSided":true,
			"name":"Door_paint",
			"pbrMetallicRoughness":{
				"baseColorFactor":[
					0.699999988079071,
					0.699999988079071,
					0.699999988079071,
					1
				],
				"metallicFactor":0
			}
		}
	],
	"meshes":[
		{
			"name":"Cube.003",
			"primitives":[
				{
					"attributes":{
						"POSITION":0,
						"NORMAL":1,
						"TEXCOORD_0":2
					},
					"indices":3,
					"material":0
				}
			]
		},
		{
			"name":"Cylinder.004",
			"primitives":[
				{
					"attributes":{
						"POSITION":4,
						"NORMAL":5,
						"TEXCOORD_0":6
					},
					"indices":7,
					"material":1
				},
				{
					"attributes":{
						"POSITION":8,
						"NORMAL":9,
						"TEXCOORD_0":10
					},
					"indices":11,
					"material":0
				}
			]
		}
	],
	"accessors":[
		{
			"bufferView":0,
			"componentType":5126,
			"count":1280,
			"max":[
				0.13500000536441803,
				0.02940000593662262,
				0.03500001132488251
			],
			"min":[
				-0.02940000407397747,
				-0.02940024435520172,
				-0.11600039899349213
			],
			"type":"VEC3"
		},
		{
			"bufferView":1,
			"componentType":5126,
			"count":1280,
			"type":"VEC3"
		},
		{
			"bufferView":2,
			"componentType":5126,
			"count":1280,
			"type":"VEC2"
		},
		{
			"bufferView":3,
			"componentType":5123,
			"count":2772,
			"type":"SCALAR"
		},
		{
			"bufferView":4,
			"componentType":5126,
			"count":126,
			"max":[
				-0.009386776946485043,
				1.04183030128479,
				0.010613380931317806
			],
			"min":[
				-0.8893870711326599,
				-1.0981695652008057,
				-0.03038671426475048
			],
			"type":"VEC3"
		},
		{
			"bufferView":5,
			"componentType":5126,
			"count":126,
			"type":"VEC3"
		},
		{
			"bufferView":6,
			"componentType":5126,
			"count":126,
			"type":"VEC2"
		},
		{
			"bufferView":7,
			"componentType":5123,
			"count":318,
			"type":"SCALAR"
		},
		{
			"bufferView":8,
			"componentType":5126,
			"count":999,
			"max":[
				0.009386532939970493,
				0.9778004884719849,
				0.009386652149260044
			],
			"min":[
				-0.8693870902061462,
				-0.9100040197372437,
				-0.027072571218013763
			],
			"type":"VEC3"
		},
		{
			"bufferView":9,
			"componentType":5126,
			"count":999,
			"type":"VEC3"
		},
		{
			"bufferView":10,
			"componentType":5126,
			"count":999,
			"type":"VEC2"
		},
		{
			"bufferView":11,
			"componentType":5123,
			"count":4134,
			"type":"SCALAR"
		},
		{
			"bufferView":12,
			"componentType":5126,
			"count":2,
			"max":[
				1.25
			],
			"min":[
				0
			],
			"type":"SCALAR"
		},
		{
			"bufferView":13,
			"componentType":5126,
			"count":2,
			"type":"VEC3"
		},
		{
			"bufferView":14,
			"componentType":5126,
			"count":31,
			"max":[
				1.25
			],
			"min":[
				0
			],
			"type":"SCALAR"
		},
		{
			"bufferView":15,
			"componentType":5126,
			"count":31,
			"type":"VEC4"
		},
		{
			"bufferView":16,
			"componentType":5126,
			"count":2,
			"type":"VEC3"
		},
		{
			"bufferView":17,
			"componentType":5126,
			"count":2,
			"type":"VEC3"
		},
		{
			"bufferView":18,
			"componentType":5126,
			"count":2,
			"type":"VEC4"
		},
		{
			"bufferView":19,
			"componentType":5126,
			"count":2,
			"type":"VEC3"
		}
	],
	"bufferViews":[
		{
			"buffer":0,
			"byteLength":15360,
			"byteOffset":0,
			"target":34962
		},
		{
			"buffer":0,
			"byteLength":15360,
			"byteOffset":15360,
			"target":34962
		},
		{
			"buffer":0,
			"byteLength":10240,
			"byteOffset":30720,
			"target":34962
		},
		{
			"buffer":0,
			"byteLength":5544,
			"byteOffset":40960,
			"target":34963
		},
		{
			"buffer":0,
			"byteLength":1512,
			"byteOffset":46504,
			"target":34962
		},
		{
			"buffer":0,
			"byteLength":1512,
			"byteOffset":48016,
			"target":34962
		},
		{
			"buffer":0,
			"byteLength":1008,
			"byteOffset":49528,
			"target":34962
		},
		{
			"buffer":0,
			"byteLength":636,
			"byteOffset":50536,
			"target":34963
		},
		{
			"buffer":0,
			"byteLength":11988,
			"byteOffset":51172,
			"target":34962
		},
		{
			"buffer":0,
			"byteLength":11988,
			"byteOffset":63160,
			"target":34962
		},
		{
			"buffer":0,
			"byteLength":7992,
			"byteOffset":75148,
			"target":34962
		},
		{
			"buffer":0,
			"byteLength":8268,
			"byteOffset":83140,
			"target":34963
		},
		{
			"buffer":0,
			"byteLength":8,
			"byteOffset":91408
		},
		{
			"buffer":0,
			"byteLength":24,
			"byteOffset":91416
		},
		{
			"buffer":0,
			"byteLength":124,
			"byteOffset":91440
		},
		{
			"buffer":0,
			"byteLength":496,
			"byteOffset":91564
		},
		{
			"buffer":0,
			"byteLength":24,
			"byteOffset":92060
		},
		{
			"buffer":0,
			"byteLength":24,
			"byteOffset":92084
		},
		{
			"buffer":0,
			"byteLength":32,
			"byteOffset":92108
		},
		{
			"buffer":0,
			"byteLength":24,
			"byteOffset":92140
		}
	],
	"buffers":[
		{
			"byteLength":92164,
			"uri":"Door3.bin"
		}
	]
}
