{
	"asset":{
		"generator":"Khronos glTF Blender I/O v4.3.47",
		"version":"2.0"
	},
	"scene":0,
	"scenes":[
		{
			"name":"Scene",
			"nodes":[
				1
			]
		}
	],
	"nodes":[
		{
			"mesh":0,
			"name":"Door Frame",
			"translation":[
				0,
				1.0159999132156372,
				0.03887888044118881
			]
		},
		{
			"children":[
				0
			],
			"name":"Animated Interior Door"
		}
	],
	"materials":[
		{
			"doubleSided":true,
			"name":"Material.008",
			"pbrMetallicRoughness":{
				"baseColorFactor":[
					0.800000011920929,
					0.800000011920929,
					0.800000011920929,
					1
				],
				"metallicFactor":0,
				"roughnessFactor":0.30000001192092896
			}
		},
		{
			"doubleSided":true,
			"name":"Door Handle.002",
			"pbrMetallicRoughness":{
				"baseColorFactor":[
					0.800000011920929,
					0.800000011920929,
					0.800000011920929,
					1
				],
				"roughnessFactor":0.27586206793785095
			}
		},
		{
			"doubleSided":true,
			"name":"Material.009",
			"pbrMetallicRoughness":{
				"baseColorFactor":[
					0.2721893787384033,
					0.21142934262752533,
					0.13038447499275208,
					1
				],
				"metallicFactor":0,
				"roughnessFactor":0.5
			}
		}
	],
	"meshes":[
		{
			"name":"Cube.014",
			"primitives":[
				{
					"attributes":{
						"POSITION":0,
						"NORMAL":1,
						"TEXCOORD_0":2
					},
					"indices":3,
					"material":0
				},
				{
					"attributes":{
						"POSITION":4,
						"NORMAL":5,
						"TEXCOORD_0":6
					},
					"indices":7,
					"material":1
				},
				{
					"attributes":{
						"POSITION":8,
						"NORMAL":9,
						"TEXCOORD_0":10
					},
					"indices":11,
					"material":2
				}
			]
		}
	],
	"accessors":[
		{
			"bufferView":0,
			"componentType":5126,
			"count":517,
			"max":[
				0.43580523133277893,
				1.045802354812622,
				0.02337721362709999
			],
			"min":[
				-0.43580523133277893,
				-1.0160000324249268,
				-0.09375177323818207
			],
			"type":"VEC3"
		},
		{
			"bufferView":1,
			"componentType":5126,
			"count":517,
			"type":"VEC3"
		},
		{
			"bufferView":2,
			"componentType":5126,
			"count":517,
			"type":"VEC2"
		},
		{
			"bufferView":3,
			"componentType":5123,
			"count":1656,
			"type":"SCALAR"
		},
		{
			"bufferView":4,
			"componentType":5126,
			"count":2886,
			"max":[
				-0.40386053919792175,
				0.8990373015403748,
				0.024813910946249962
			],
			"min":[
				-0.4101681709289551,
				-0.9013275504112244,
				-0.010068703442811966
			],
			"type":"VEC3"
		},
		{
			"bufferView":5,
			"componentType":5126,
			"count":2886,
			"type":"VEC3"
		},
		{
			"bufferView":6,
			"componentType":5126,
			"count":2886,
			"type":"VEC2"
		},
		{
			"bufferView":7,
			"componentType":5123,
			"count":8604,
			"type":"SCALAR"
		},
		{
			"bufferView":8,
			"componentType":5126,
			"count":20,
			"max":[
				0.4167878329753876,
				0.009273388423025608,
				0.009656498208642006
			],
			"min":[
				0.4101696312427521,
				-0.010020964778959751,
				-0.009637854993343353
			],
			"type":"VEC3"
		},
		{
			"bufferView":9,
			"componentType":5126,
			"count":20,
			"type":"VEC3"
		},
		{
			"bufferView":10,
			"componentType":5126,
			"count":20,
			"type":"VEC2"
		},
		{
			"bufferView":11,
			"componentType":5123,
			"count":30,
			"type":"SCALAR"
		}
	],
	"bufferViews":[
		{
			"buffer":0,
			"byteLength":6204,
			"byteOffset":0,
			"target":34962
		},
		{
			"buffer":0,
			"byteLength":6204,
			"byteOffset":6204,
			"target":34962
		},
		{
			"buffer":0,
			"byteLength":4136,
			"byteOffset":12408,
			"target":34962
		},
		{
			"buffer":0,
			"byteLength":3312,
			"byteOffset":16544,
			"target":34963
		},
		{
			"buffer":0,
			"byteLength":34632,
			"byteOffset":19856,
			"target":34962
		},
		{
			"buffer":0,
			"byteLength":34632,
			"byteOffset":54488,
			"target":34962
		},
		{
			"buffer":0,
			"byteLength":23088,
			"byteOffset":89120,
			"target":34962
		},
		{
			"buffer":0,
			"byteLength":17208,
			"byteOffset":112208,
			"target":34963
		},
		{
			"buffer":0,
			"byteLength":240,
			"byteOffset":129416,
			"target":34962
		},
		{
			"buffer":0,
			"byteLength":240,
			"byteOffset":129656,
			"target":34962
		},
		{
			"buffer":0,
			"byteLength":160,
			"byteOffset":129896,
			"target":34962
		},
		{
			"buffer":0,
			"byteLength":60,
			"byteOffset":130056,
			"target":34963
		}
	],
	"buffers":[
		{
			"byteLength":130116,
			"uri":"doorFrame.bin"
		}
	]
}
