{
	"asset":{
		"generator":"Khronos glTF Blender I/O v4.3.47",
		"version":"2.0"
	},
	"extensionsUsed":[
		"KHR_materials_emissive_strength"
	],
	"scene":0,
	"scenes":[
		{
			"name":"Scene",
			"nodes":[
				0
			]
		}
	],
	"nodes":[
		{
			"mesh":0,
			"name":"LED Light 28cm 3000K"
		}
	],
	"materials":[
		{
			"doubleSided":true,
			"name":"Plastic",
			"pbrMetallicRoughness":{
				"baseColorFactor":[
					0.14514011144638062,
					0.14514011144638062,
					0.14514011144638062,
					1
				],
				"metallicFactor":0,
				"roughnessFactor":0.5
			}
		},
		{
			"doubleSided":true,
			"emissiveFactor":[
				1,
				1,
				1
			],
			"extensions":{
				"KHR_materials_emissive_strength":{
					"emissiveStrength":4
				}
			},
			"name":"Light",
			"pbrMetallicRoughness":{
				"baseColorFactor":[
					0,
					0,
					0,
					1
				]
			}
		}
	],
	"meshes":[
		{
			"name":"Cylinder.010",
			"primitives":[
				{
					"attributes":{
						"POSITION":0,
						"NORMAL":1,
						"TEXCOORD_0":2
					},
					"indices":3,
					"material":0
				},
				{
					"attributes":{
						"POSITION":4,
						"NORMAL":5,
						"TEXCOORD_0":6
					},
					"indices":7,
					"material":1
				}
			]
		}
	],
	"accessors":[
		{
			"bufferView":0,
			"componentType":5126,
			"count":529,
			"max":[
				0.14000000059604645,
				0.02499999664723873,
				0.14000000059604645
			],
			"min":[
				-0.14000000059604645,
				-3.725290298461914e-09,
				-0.14000000059604645
			],
			"type":"VEC3"
		},
		{
			"bufferView":1,
			"componentType":5126,
			"count":529,
			"type":"VEC3"
		},
		{
			"bufferView":2,
			"componentType":5126,
			"count":529,
			"type":"VEC2"
		},
		{
			"bufferView":3,
			"componentType":5123,
			"count":2016,
			"type":"SCALAR"
		},
		{
			"bufferView":4,
			"componentType":5126,
			"count":107,
			"max":[
				0.1351064145565033,
				0.02251352369785309,
				0.1351064145565033
			],
			"min":[
				-0.1351064145565033,
				0.022485602647066116,
				-0.1351064145565033
			],
			"type":"VEC3"
		},
		{
			"bufferView":5,
			"componentType":5126,
			"count":107,
			"type":"VEC3"
		},
		{
			"bufferView":6,
			"componentType":5126,
			"count":107,
			"type":"VEC2"
		},
		{
			"bufferView":7,
			"componentType":5123,
			"count":288,
			"type":"SCALAR"
		}
	],
	"bufferViews":[
		{
			"buffer":0,
			"byteLength":6348,
			"byteOffset":0,
			"target":34962
		},
		{
			"buffer":0,
			"byteLength":6348,
			"byteOffset":6348,
			"target":34962
		},
		{
			"buffer":0,
			"byteLength":4232,
			"byteOffset":12696,
			"target":34962
		},
		{
			"buffer":0,
			"byteLength":4032,
			"byteOffset":16928,
			"target":34963
		},
		{
			"buffer":0,
			"byteLength":1284,
			"byteOffset":20960,
			"target":34962
		},
		{
			"buffer":0,
			"byteLength":1284,
			"byteOffset":22244,
			"target":34962
		},
		{
			"buffer":0,
			"byteLength":856,
			"byteOffset":23528,
			"target":34962
		},
		{
			"buffer":0,
			"byteLength":576,
			"byteOffset":24384,
			"target":34963
		}
	],
	"buffers":[
		{
			"byteLength":24960,
			"uri":"light.bin"
		}
	]
}
