{
	"asset":{
		"generator":"Khronos glTF Blender I/O v4.3.47",
		"version":"2.0"
	},
	"scene":0,
	"scenes":[
		{
			"name":"Scene",
			"nodes":[
				10
			]
		}
	],
	"nodes":[
		{
			"mesh":0,
			"name":"Cube.073"
		},
		{
			"mesh":1,
			"name":"Cube.074"
		},
		{
			"mesh":2,
			"name":"Cube.075"
		},
		{
			"mesh":3,
			"name":"Cube.077"
		},
		{
			"mesh":4,
			"name":"Cube.079"
		},
		{
			"mesh":5,
			"name":"Cube.080"
		},
		{
			"mesh":6,
			"name":"Cube.081"
		},
		{
			"mesh":7,
			"name":"Cube.083"
		},
		{
			"mesh":8,
			"name":"Unwind 2-Piece sofa light orange.001"
		},
		{
			"mesh":9,
			"name":"Unwind Ottoman.004"
		},
		{
			"children":[
				0,
				1,
				2,
				3,
				4,
				5,
				6,
				7,
				8,
				9
			],
			"name":"Unwind 3-Piece Reversible Sofa"
		}
	],
	"materials":[
		{
			"doubleSided":true,
			"name":"Fabric.001",
			"normalTexture":{
				"index":0
			},
			"pbrMetallicRoughness":{
				"baseColorTexture":{
					"index":1
				},
				"metallicFactor":0,
				"metallicRoughnessTexture":{
					"index":2
				}
			}
		},
		{
			"doubleSided":true,
			"name":"Fabric.001",
			"normalTexture":{
				"index":0,
				"texCoord":1
			},
			"pbrMetallicRoughness":{
				"baseColorTexture":{
					"index":1,
					"texCoord":1
				},
				"metallicFactor":0,
				"metallicRoughnessTexture":{
					"index":2,
					"texCoord":1
				}
			}
		},
		{
			"doubleSided":true,
			"name":"Metal.002",
			"normalTexture":{
				"index":3,
				"texCoord":1
			},
			"pbrMetallicRoughness":{
				"baseColorTexture":{
					"index":4,
					"texCoord":1
				},
				"metallicRoughnessTexture":{
					"index":5,
					"texCoord":1
				}
			}
		},
		{
			"doubleSided":true,
			"name":"Metal.003",
			"normalTexture":{
				"index":6,
				"texCoord":1
			},
			"pbrMetallicRoughness":{
				"baseColorTexture":{
					"index":7,
					"texCoord":1
				},
				"metallicRoughnessTexture":{
					"index":8,
					"texCoord":1
				}
			}
		}
	],
	"meshes":[
		{
			"name":"Cube.090",
			"primitives":[
				{
					"attributes":{
						"POSITION":0,
						"NORMAL":1,
						"TEXCOORD_0":2
					},
					"indices":3,
					"material":0
				}
			]
		},
		{
			"name":"Cube.091",
			"primitives":[
				{
					"attributes":{
						"POSITION":4,
						"NORMAL":5,
						"TEXCOORD_0":6,
						"TEXCOORD_1":7
					},
					"indices":8,
					"material":1
				}
			]
		},
		{
			"name":"Cube.092",
			"primitives":[
				{
					"attributes":{
						"POSITION":9,
						"NORMAL":10,
						"TEXCOORD_0":11
					},
					"indices":12,
					"material":0
				}
			]
		},
		{
			"name":"Cube.094",
			"primitives":[
				{
					"attributes":{
						"POSITION":13,
						"NORMAL":14,
						"TEXCOORD_0":15
					},
					"indices":16,
					"material":0
				}
			]
		},
		{
			"name":"Cube.096",
			"primitives":[
				{
					"attributes":{
						"POSITION":17,
						"NORMAL":18,
						"TEXCOORD_0":19,
						"TEXCOORD_1":20
					},
					"indices":21,
					"material":1
				}
			]
		},
		{
			"name":"Cube.097",
			"primitives":[
				{
					"attributes":{
						"POSITION":22,
						"NORMAL":23,
						"TEXCOORD_0":24
					},
					"indices":25,
					"material":0
				}
			]
		},
		{
			"name":"Cube.100",
			"primitives":[
				{
					"attributes":{
						"POSITION":26,
						"NORMAL":27,
						"TEXCOORD_0":28,
						"TEXCOORD_1":29
					},
					"indices":30,
					"material":2
				},
				{
					"attributes":{
						"POSITION":31,
						"NORMAL":32,
						"TEXCOORD_0":33,
						"TEXCOORD_1":34
					},
					"indices":35,
					"material":3
				}
			]
		},
		{
			"name":"Cube.101",
			"primitives":[
				{
					"attributes":{
						"POSITION":36,
						"NORMAL":37,
						"TEXCOORD_0":38
					},
					"indices":39,
					"material":0
				}
			]
		},
		{
			"name":"Cube.089",
			"primitives":[
				{
					"attributes":{
						"POSITION":40,
						"NORMAL":41,
						"TEXCOORD_0":42
					},
					"indices":43,
					"material":0
				}
			]
		},
		{
			"name":"Cube.098",
			"primitives":[
				{
					"attributes":{
						"POSITION":44,
						"NORMAL":45,
						"TEXCOORD_0":46
					},
					"indices":47,
					"material":0
				}
			]
		}
	],
	"textures":[
		{
			"sampler":0,
			"source":0
		},
		{
			"sampler":0,
			"source":1
		},
		{
			"sampler":0,
			"source":2
		},
		{
			"sampler":0,
			"source":3
		},
		{
			"sampler":0,
			"source":4
		},
		{
			"sampler":0,
			"source":5
		},
		{
			"sampler":0,
			"source":6
		},
		{
			"sampler":0,
			"source":7
		},
		{
			"sampler":0,
			"source":8
		}
	],
	"images":[
		{
			"mimeType":"image/jpeg",
			"name":"Fabric036_2K_Normal",
			"uri":"textures/Fabric036_2K_Normal.jpg"
		},
		{
			"mimeType":"image/jpeg",
			"name":"whitish",
			"uri":"textures/whitish.jpg"
		},
		{
			"mimeType":"image/png",
			"name":"Fabric036_2K_Roughness",
			"uri":"textures/Fabric036_2K_Roughness.png"
		},
		{
			"mimeType":"image/jpeg",
			"name":"Metal_normal",
			"uri":"textures/Metal_normal.jpg"
		},
		{
			"mimeType":"image/jpeg",
			"name":"Metal_basecolor",
			"uri":"textures/Metal_basecolor.jpg"
		},
		{
			"mimeType":"image/png",
			"name":"Metal_roughness",
			"uri":"textures/Metal_roughness.png"
		},
		{
			"mimeType":"image/jpeg",
			"name":"Metal_normal000",
			"uri":"textures/Metal_normal000.jpg"
		},
		{
			"mimeType":"image/jpeg",
			"name":"Metal_basecolor000",
			"uri":"textures/Metal_basecolor000.jpg"
		},
		{
			"mimeType":"image/png",
			"name":"Metal_roughness000",
			"uri":"textures/Metal_roughness000.png"
		}
	],
	"accessors":[
		{
			"bufferView":0,
			"componentType":5126,
			"count":15734,
			"max":[
				1.1660099029541016,
				0.48738598823547363,
				0.46712929010391235
			],
			"min":[
				-0.008340239524841309,
				0.22575660049915314,
				-0.2926139831542969
			],
			"type":"VEC3"
		},
		{
			"bufferView":1,
			"componentType":5126,
			"count":15734,
			"type":"VEC3"
		},
		{
			"bufferView":2,
			"componentType":5126,
			"count":15734,
			"type":"VEC2"
		},
		{
			"bufferView":3,
			"componentType":5123,
			"count":90432,
			"type":"SCALAR"
		},
		{
			"bufferView":4,
			"componentType":5126,
			"count":15734,
			"max":[
				1.1659936904907227,
				0.8647912740707397,
				-0.07597590982913971
			],
			"min":[
				-0.016097187995910645,
				0.4127296805381775,
				-0.35598689317703247
			],
			"type":"VEC3"
		},
		{
			"bufferView":5,
			"componentType":5126,
			"count":15734,
			"type":"VEC3"
		},
		{
			"bufferView":6,
			"componentType":5126,
			"count":15734,
			"type":"VEC2"
		},
		{
			"bufferView":7,
			"componentType":5126,
			"count":15734,
			"type":"VEC2"
		},
		{
			"bufferView":8,
			"componentType":5123,
			"count":90432,
			"type":"SCALAR"
		},
		{
			"bufferView":9,
			"componentType":5126,
			"count":15118,
			"max":[
				1.1616954803466797,
				0.7688959240913391,
				0.4313824772834778
			],
			"min":[
				0.944120466709137,
				0.4159204363822937,
				-0.12453964352607727
			],
			"type":"VEC3"
		},
		{
			"bufferView":10,
			"componentType":5126,
			"count":15118,
			"type":"VEC3"
		},
		{
			"bufferView":11,
			"componentType":5126,
			"count":15118,
			"type":"VEC2"
		},
		{
			"bufferView":12,
			"componentType":5123,
			"count":86784,
			"type":"SCALAR"
		},
		{
			"bufferView":13,
			"componentType":5126,
			"count":15734,
			"max":[
				0.010871648788452148,
				0.48738598823547363,
				0.4691956639289856
			],
			"min":[
				-1.1652729511260986,
				0.22575660049915314,
				-0.2926139831542969
			],
			"type":"VEC3"
		},
		{
			"bufferView":14,
			"componentType":5126,
			"count":15734,
			"type":"VEC3"
		},
		{
			"bufferView":15,
			"componentType":5126,
			"count":15734,
			"type":"VEC2"
		},
		{
			"bufferView":16,
			"componentType":5123,
			"count":90432,
			"type":"SCALAR"
		},
		{
			"bufferView":17,
			"componentType":5126,
			"count":15734,
			"max":[
				0.011629819869995117,
				0.8647912740707397,
				-0.07597590982913971
			],
			"min":[
				-1.1704609394073486,
				0.4127296805381775,
				-0.35598689317703247
			],
			"type":"VEC3"
		},
		{
			"bufferView":18,
			"componentType":5126,
			"count":15734,
			"type":"VEC3"
		},
		{
			"bufferView":19,
			"componentType":5126,
			"count":15734,
			"type":"VEC2"
		},
		{
			"bufferView":20,
			"componentType":5126,
			"count":15734,
			"type":"VEC2"
		},
		{
			"bufferView":21,
			"componentType":5123,
			"count":90432,
			"type":"SCALAR"
		},
		{
			"bufferView":22,
			"componentType":5126,
			"count":15118,
			"max":[
				-0.9485878348350525,
				0.7688959240913391,
				0.4313824772834778
			],
			"min":[
				-1.1661629676818848,
				0.4159204363822937,
				-0.12453964352607727
			],
			"type":"VEC3"
		},
		{
			"bufferView":23,
			"componentType":5126,
			"count":15118,
			"type":"VEC3"
		},
		{
			"bufferView":24,
			"componentType":5126,
			"count":15118,
			"type":"VEC2"
		},
		{
			"bufferView":25,
			"componentType":5123,
			"count":86784,
			"type":"SCALAR"
		},
		{
			"bufferView":26,
			"componentType":5126,
			"count":4500,
			"max":[
				1.2061511278152466,
				0.02848074771463871,
				1.3145700693130493
			],
			"min":[
				0.06563103199005127,
				0.00463067926466465,
				0.526848316192627
			],
			"type":"VEC3"
		},
		{
			"bufferView":27,
			"componentType":5126,
			"count":4500,
			"type":"VEC3"
		},
		{
			"bufferView":28,
			"componentType":5126,
			"count":4500,
			"type":"VEC2"
		},
		{
			"bufferView":29,
			"componentType":5126,
			"count":4500,
			"type":"VEC2"
		},
		{
			"bufferView":30,
			"componentType":5123,
			"count":19968,
			"type":"SCALAR"
		},
		{
			"bufferView":31,
			"componentType":5126,
			"count":9000,
			"max":[
				1.209517240524292,
				0.03062894381582737,
				0.37988361716270447
			],
			"min":[
				-1.2113265991210938,
				0.006778812501579523,
				-0.37988361716270447
			],
			"type":"VEC3"
		},
		{
			"bufferView":32,
			"componentType":5126,
			"count":9000,
			"type":"VEC3"
		},
		{
			"bufferView":33,
			"componentType":5126,
			"count":9000,
			"type":"VEC2"
		},
		{
			"bufferView":34,
			"componentType":5126,
			"count":9000,
			"type":"VEC2"
		},
		{
			"bufferView":35,
			"componentType":5123,
			"count":39936,
			"type":"SCALAR"
		},
		{
			"bufferView":36,
			"componentType":5126,
			"count":15734,
			"max":[
				1.276760458946228,
				0.48628655076026917,
				1.4246740341186523
			],
			"min":[
				-0.009234011173248291,
				0.1963033676147461,
				0.4347565472126007
			],
			"type":"VEC3"
		},
		{
			"bufferView":37,
			"componentType":5126,
			"count":15734,
			"type":"VEC3"
		},
		{
			"bufferView":38,
			"componentType":5126,
			"count":15734,
			"type":"VEC2"
		},
		{
			"bufferView":39,
			"componentType":5123,
			"count":90432,
			"type":"SCALAR"
		},
		{
			"bufferView":40,
			"componentType":5126,
			"count":19634,
			"max":[
				1.282193899154663,
				0.6612164974212646,
				0.4326763153076172
			],
			"min":[
				-1.2840030193328857,
				0.02319982647895813,
				-0.4327930212020874
			],
			"type":"VEC3"
		},
		{
			"bufferView":41,
			"componentType":5126,
			"count":19634,
			"type":"VEC3"
		},
		{
			"bufferView":42,
			"componentType":5126,
			"count":19634,
			"type":"VEC2"
		},
		{
			"bufferView":43,
			"componentType":5123,
			"count":109872,
			"type":"SCALAR"
		},
		{
			"bufferView":44,
			"componentType":5126,
			"count":94100,
			"max":[
				1.2685996294021606,
				0.2843354642391205,
				1.417163610458374
			],
			"min":[
				-0.025447726249694824,
				0.02410806156694889,
				0.42948275804519653
			],
			"type":"VEC3"
		},
		{
			"bufferView":45,
			"componentType":5126,
			"count":94100,
			"type":"VEC3"
		},
		{
			"bufferView":46,
			"componentType":5126,
			"count":94100,
			"type":"VEC2"
		},
		{
			"bufferView":47,
			"componentType":5125,
			"count":381504,
			"type":"SCALAR"
		}
	],
	"bufferViews":[
		{
			"buffer":0,
			"byteLength":188808,
			"byteOffset":0,
			"target":34962
		},
		{
			"buffer":0,
			"byteLength":188808,
			"byteOffset":188808,
			"target":34962
		},
		{
			"buffer":0,
			"byteLength":125872,
			"byteOffset":377616,
			"target":34962
		},
		{
			"buffer":0,
			"byteLength":180864,
			"byteOffset":503488,
			"target":34963
		},
		{
			"buffer":0,
			"byteLength":188808,
			"byteOffset":684352,
			"target":34962
		},
		{
			"buffer":0,
			"byteLength":188808,
			"byteOffset":873160,
			"target":34962
		},
		{
			"buffer":0,
			"byteLength":125872,
			"byteOffset":1061968,
			"target":34962
		},
		{
			"buffer":0,
			"byteLength":125872,
			"byteOffset":1187840,
			"target":34962
		},
		{
			"buffer":0,
			"byteLength":180864,
			"byteOffset":1313712,
			"target":34963
		},
		{
			"buffer":0,
			"byteLength":181416,
			"byteOffset":1494576,
			"target":34962
		},
		{
			"buffer":0,
			"byteLength":181416,
			"byteOffset":1675992,
			"target":34962
		},
		{
			"buffer":0,
			"byteLength":120944,
			"byteOffset":1857408,
			"target":34962
		},
		{
			"buffer":0,
			"byteLength":173568,
			"byteOffset":1978352,
			"target":34963
		},
		{
			"buffer":0,
			"byteLength":188808,
			"byteOffset":2151920,
			"target":34962
		},
		{
			"buffer":0,
			"byteLength":188808,
			"byteOffset":2340728,
			"target":34962
		},
		{
			"buffer":0,
			"byteLength":125872,
			"byteOffset":2529536,
			"target":34962
		},
		{
			"buffer":0,
			"byteLength":180864,
			"byteOffset":2655408,
			"target":34963
		},
		{
			"buffer":0,
			"byteLength":188808,
			"byteOffset":2836272,
			"target":34962
		},
		{
			"buffer":0,
			"byteLength":188808,
			"byteOffset":3025080,
			"target":34962
		},
		{
			"buffer":0,
			"byteLength":125872,
			"byteOffset":3213888,
			"target":34962
		},
		{
			"buffer":0,
			"byteLength":125872,
			"byteOffset":3339760,
			"target":34962
		},
		{
			"buffer":0,
			"byteLength":180864,
			"byteOffset":3465632,
			"target":34963
		},
		{
			"buffer":0,
			"byteLength":181416,
			"byteOffset":3646496,
			"target":34962
		},
		{
			"buffer":0,
			"byteLength":181416,
			"byteOffset":3827912,
			"target":34962
		},
		{
			"buffer":0,
			"byteLength":120944,
			"byteOffset":4009328,
			"target":34962
		},
		{
			"buffer":0,
			"byteLength":173568,
			"byteOffset":4130272,
			"target":34963
		},
		{
			"buffer":0,
			"byteLength":54000,
			"byteOffset":4303840,
			"target":34962
		},
		{
			"buffer":0,
			"byteLength":54000,
			"byteOffset":4357840,
			"target":34962
		},
		{
			"buffer":0,
			"byteLength":36000,
			"byteOffset":4411840,
			"target":34962
		},
		{
			"buffer":0,
			"byteLength":36000,
			"byteOffset":4447840,
			"target":34962
		},
		{
			"buffer":0,
			"byteLength":39936,
			"byteOffset":4483840,
			"target":34963
		},
		{
			"buffer":0,
			"byteLength":108000,
			"byteOffset":4523776,
			"target":34962
		},
		{
			"buffer":0,
			"byteLength":108000,
			"byteOffset":4631776,
			"target":34962
		},
		{
			"buffer":0,
			"byteLength":72000,
			"byteOffset":4739776,
			"target":34962
		},
		{
			"buffer":0,
			"byteLength":72000,
			"byteOffset":4811776,
			"target":34962
		},
		{
			"buffer":0,
			"byteLength":79872,
			"byteOffset":4883776,
			"target":34963
		},
		{
			"buffer":0,
			"byteLength":188808,
			"byteOffset":4963648,
			"target":34962
		},
		{
			"buffer":0,
			"byteLength":188808,
			"byteOffset":5152456,
			"target":34962
		},
		{
			"buffer":0,
			"byteLength":125872,
			"byteOffset":5341264,
			"target":34962
		},
		{
			"buffer":0,
			"byteLength":180864,
			"byteOffset":5467136,
			"target":34963
		},
		{
			"buffer":0,
			"byteLength":235608,
			"byteOffset":5648000,
			"target":34962
		},
		{
			"buffer":0,
			"byteLength":235608,
			"byteOffset":5883608,
			"target":34962
		},
		{
			"buffer":0,
			"byteLength":157072,
			"byteOffset":6119216,
			"target":34962
		},
		{
			"buffer":0,
			"byteLength":219744,
			"byteOffset":6276288,
			"target":34963
		},
		{
			"buffer":0,
			"byteLength":1129200,
			"byteOffset":6496032,
			"target":34962
		},
		{
			"buffer":0,
			"byteLength":1129200,
			"byteOffset":7625232,
			"target":34962
		},
		{
			"buffer":0,
			"byteLength":752800,
			"byteOffset":8754432,
			"target":34962
		},
		{
			"buffer":0,
			"byteLength":1526016,
			"byteOffset":9507232,
			"target":34963
		}
	],
	"samplers":[
		{
			"magFilter":9729,
			"minFilter":9987
		}
	],
	"buffers":[
		{
			"byteLength":11033248,
			"uri":"sofa.bin"
		}
	]
}
