{
	"asset":{
		"generator":"Khronos glTF Blender I/O v4.3.47",
		"version":"2.0"
	},
	"extensionsUsed":[
		"KHR_materials_emissive_strength",
		"KHR_materials_specular",
		"KHR_materials_ior"
	],
	"scene":0,
	"scenes":[
		{
			"name":"Scene",
			"nodes":[
				15
			]
		}
	],
	"nodes":[
		{
			"mesh":0,
			"name":"book_inside.005"
		},
		{
			"mesh":1,
			"name":"book_inside.006",
			"rotation":[
				0,
				0,
				-0.06676051020622253,
				0.9977691173553467
			],
			"translation":[
				0,
				0,
				0.023956896737217903
			]
		},
		{
			"children":[
				0,
				1
			],
			"mesh":2,
			"name":"book_cover.005",
			"rotation":[
				-0.4348907470703125,
				0.5575573444366455,
				0.5575573444366455,
				0.43489041924476624
			],
			"translation":[
				-0.7004964351654053,
				0.23707544803619385,
				0.02950608730316162
			]
		},
		{
			"mesh":3,
			"name":"book_cover.006",
			"rotation":[
				-0.47114330530166626,
				0.5272799134254456,
				0.5272799730300903,
				0.4711430072784424
			],
			"translation":[
				-0.7004964351654053,
				0.2610323429107666,
				0.02950608730316162
			]
		},
		{
			"mesh":4,
			"name":"book_inside.007",
			"translation":[
				0,
				0,
				0.0007094499887898564
			]
		},
		{
			"children":[
				4
			],
			"mesh":5,
			"name":"book_cover.007",
			"rotation":[
				-0.21385905146598816,
				0.673991322517395,
				0.6739915013313293,
				0.21385866403579712
			],
			"translation":[
				0.6671714782714844,
				0.3750433027744293,
				0.011171936988830566
			]
		},
		{
			"mesh":6,
			"name":"Cabinet1",
			"translation":[
				-0.9000000953674316,
				0.01000000536441803,
				-0.18449963629245758
			]
		},
		{
			"mesh":7,
			"name":"Cabinet1_Door",
			"translation":[
				-0.6003856658935547,
				0.0856735110282898,
				0.1760128289461136
			]
		},
		{
			"mesh":8,
			"name":"Cabinet2",
			"translation":[
				-0.30000022053718567,
				0.01000000536441803,
				-0.18449994921684265
			]
		},
		{
			"mesh":9,
			"name":"Cabinet3",
			"translation":[
				0.2999996840953827,
				0.01000000536441803,
				-0.18450000882148743
			]
		},
		{
			"mesh":10,
			"name":"legs.003",
			"rotation":[
				0.07689978927373886,
				0.009093077853322029,
				-0.1170744076371193,
				0.9900996685028076
			],
			"scale":[
				0.014027653262019157,
				0.03737873211503029,
				0.014027655124664307
			],
			"translation":[
				-0.7615346908569336,
				-0.03240511938929558,
				-0.1394219696521759
			]
		},
		{
			"children":[
				6,
				7,
				8,
				9,
				10
			],
			"mesh":11,
			"name":"Cabinet_cover",
			"translation":[
				0,
				0.08686921000480652,
				-0.004627585411071777
			]
		},
		{
			"mesh":12,
			"name":"tv_legs",
			"translation":[
				-0.4508664608001709,
				-0.41174954175949097,
				-0.016788190230727196
			]
		},
		{
			"children":[
				12
			],
			"mesh":13,
			"name":"TV",
			"translation":[
				0,
				0.41174960136413574,
				0
			]
		},
		{
			"children":[
				13
			],
			"name":"TV_CTRL",
			"translation":[
				0,
				0.36277782917022705,
				-0.02392280101776123
			]
		},
		{
			"children":[
				2,
				3,
				5,
				11,
				14
			],
			"name":"TV set"
		}
	],
	"materials":[
		{
			"doubleSided":true,
			"extensions":{
				"KHR_materials_specular":{
					"specularFactor":0
				},
				"KHR_materials_ior":{
					"ior":1.4500000476837158
				}
			},
			"name":"book_paper",
			"pbrMetallicRoughness":{
				"baseColorTexture":{
					"index":0
				},
				"metallicFactor":0
			}
		},
		{
			"doubleSided":true,
			"extensions":{
				"KHR_materials_specular":{
					"specularFactor":0
				},
				"KHR_materials_ior":{
					"ior":1.4500000476837158
				}
			},
			"name":"book_cover.005",
			"pbrMetallicRoughness":{
				"baseColorTexture":{
					"index":1
				},
				"metallicFactor":0,
				"roughnessFactor":0.5
			}
		},
		{
			"doubleSided":true,
			"name":"book_cover.006",
			"pbrMetallicRoughness":{
				"baseColorTexture":{
					"index":2
				},
				"metallicFactor":0,
				"roughnessFactor":0.5
			}
		},
		{
			"doubleSided":true,
			"extensions":{
				"KHR_materials_specular":{
					"specularFactor":0.3454545736312866
				},
				"KHR_materials_ior":{
					"ior":1.4500000476837158
				}
			},
			"name":"book_cover.007",
			"pbrMetallicRoughness":{
				"baseColorTexture":{
					"index":3
				},
				"metallicFactor":0,
				"roughnessFactor":0.5
			}
		},
		{
			"doubleSided":true,
			"name":"ceramic",
			"pbrMetallicRoughness":{
				"baseColorFactor":[
					0.800000011920929,
					0.800000011920929,
					0.800000011920929,
					1
				],
				"metallicFactor":0,
				"roughnessFactor":0
			}
		},
		{
			"doubleSided":true,
			"extensions":{
				"KHR_materials_specular":{
					"specularColorFactor":[
						2.0,
						2.0,
						2.0
					]
				},
				"KHR_materials_ior":{
					"ior":1.4500000476837158
				}
			},
			"name":"wood (Oak Matt Antracite Gray)",
			"pbrMetallicRoughness":{
				"baseColorTexture":{
					"index":4
				},
				"metallicFactor":0,
				"metallicRoughnessTexture":{
					"index":5
				}
			}
		},
		{
			"doubleSided":true,
			"extensions":{
				"KHR_materials_specular":{
					"specularFactor":0.6000000238418579
				},
				"KHR_materials_ior":{
					"ior":1.4500000476837158
				}
			},
			"name":"frame",
			"pbrMetallicRoughness":{
				"baseColorFactor":[
					0.01108772587031126,
					0.01108772587031126,
					0.01108772587031126,
					1
				],
				"metallicFactor":0,
				"roughnessFactor":0.4000000059604645
			}
		},
		{
			"doubleSided":true,
			"emissiveFactor":[
				1,
				1,
				1
			],
			"emissiveTexture":{
				"index":6
			},
			"extensions":{
				"KHR_materials_emissive_strength":{
					"emissiveStrength":8
				}
			},
			"name":"Screen (tv)",
			"pbrMetallicRoughness":{
				"baseColorFactor":[
					0,
					0,
					0,
					1
				]
			}
		}
	],
	"meshes":[
		{
			"name":"book_inside.005",
			"primitives":[
				{
					"attributes":{
						"POSITION":0,
						"NORMAL":1,
						"TEXCOORD_0":2
					},
					"indices":3,
					"material":0
				}
			]
		},
		{
			"name":"book_inside.006",
			"primitives":[
				{
					"attributes":{
						"POSITION":4,
						"NORMAL":5,
						"TEXCOORD_0":6
					},
					"indices":3,
					"material":0
				}
			]
		},
		{
			"name":"book_cover.005",
			"primitives":[
				{
					"attributes":{
						"POSITION":7,
						"NORMAL":8,
						"TEXCOORD_0":9
					},
					"indices":10,
					"material":1
				},
				{
					"attributes":{
						"POSITION":11,
						"NORMAL":12,
						"TEXCOORD_0":13
					},
					"indices":14,
					"material":0
				}
			]
		},
		{
			"name":"book_cover.006",
			"primitives":[
				{
					"attributes":{
						"POSITION":15,
						"NORMAL":16,
						"TEXCOORD_0":17
					},
					"indices":18,
					"material":2
				},
				{
					"attributes":{
						"POSITION":19,
						"NORMAL":20,
						"TEXCOORD_0":21
					},
					"indices":22,
					"material":0
				}
			]
		},
		{
			"name":"book_inside.007",
			"primitives":[
				{
					"attributes":{
						"POSITION":23,
						"NORMAL":24,
						"TEXCOORD_0":25
					},
					"indices":3,
					"material":0
				}
			]
		},
		{
			"name":"book_cover.007",
			"primitives":[
				{
					"attributes":{
						"POSITION":26,
						"NORMAL":27,
						"TEXCOORD_0":28
					},
					"indices":10,
					"material":3
				},
				{
					"attributes":{
						"POSITION":29,
						"NORMAL":30,
						"TEXCOORD_0":31
					},
					"indices":14,
					"material":0
				}
			]
		},
		{
			"name":"Cabinet1",
			"primitives":[
				{
					"attributes":{
						"POSITION":32,
						"NORMAL":33
					},
					"indices":34,
					"material":4
				}
			]
		},
		{
			"name":"Cabinet1_Door",
			"primitives":[
				{
					"attributes":{
						"POSITION":35,
						"NORMAL":36
					},
					"indices":37,
					"material":4
				}
			]
		},
		{
			"name":"Cabinet2",
			"primitives":[
				{
					"attributes":{
						"POSITION":38,
						"NORMAL":39
					},
					"indices":40,
					"material":4
				}
			]
		},
		{
			"name":"Cabinet3",
			"primitives":[
				{
					"attributes":{
						"POSITION":41,
						"NORMAL":42
					},
					"indices":40,
					"material":4
				}
			]
		},
		{
			"name":"legs.003",
			"primitives":[
				{
					"attributes":{
						"POSITION":43,
						"NORMAL":44,
						"TEXCOORD_0":45
					},
					"indices":46,
					"material":5
				}
			]
		},
		{
			"name":"Cabinet_cover",
			"primitives":[
				{
					"attributes":{
						"POSITION":47,
						"NORMAL":48,
						"TEXCOORD_0":49
					},
					"indices":50,
					"material":5
				}
			]
		},
		{
			"name":"tv_legs",
			"primitives":[
				{
					"attributes":{
						"POSITION":51,
						"NORMAL":52,
						"TEXCOORD_0":53
					},
					"indices":54,
					"material":6
				}
			]
		},
		{
			"name":"TV",
			"primitives":[
				{
					"attributes":{
						"POSITION":55,
						"NORMAL":56,
						"TEXCOORD_0":57
					},
					"indices":58,
					"material":6
				},
				{
					"attributes":{
						"POSITION":59,
						"NORMAL":60,
						"TEXCOORD_0":61
					},
					"indices":62,
					"material":7
				}
			]
		}
	],
	"textures":[
		{
			"sampler":0,
			"source":0
		},
		{
			"sampler":0,
			"source":1
		},
		{
			"sampler":0,
			"source":2
		},
		{
			"sampler":0,
			"source":3
		},
		{
			"sampler":0,
			"source":4
		},
		{
			"sampler":0,
			"source":5
		},
		{
			"sampler":0,
			"source":6
		}
	],
	"images":[
		{
			"mimeType":"image/jpeg",
			"name":"Ikea Set Book Paper",
			"uri":"textures/Ikea%20Set%20Book%20Paper.jpg"
		},
		{
			"mimeType":"image/jpeg",
			"name":"c1ce9c63d116cda52e0b594dde171ec5",
			"uri":"textures/c1ce9c63d116cda52e0b594dde171ec5.jpg"
		},
		{
			"mimeType":"image/png",
			"name":"2e8d2383746549.5d45ff935a519",
			"uri":"textures/2e8d2383746549_5d45ff935a519.png"
		},
		{
			"mimeType":"image/jpeg",
			"name":"mgh2bookcover (15)",
			"uri":"textures/mgh2bookcover%2015.jpg"
		},
		{
			"mimeType":"image/jpeg",
			"name":"cmppmax_v2_9_1_12_d",
			"uri":"textures/cmppmax_v2_9_1_12_d.jpg"
		},
		{
			"mimeType":"image/png",
			"name":"cmppmax_v2_9_1_7_g",
			"uri":"textures/cmppmax_v2_9_1_7_g.png"
		},
		{
			"mimeType":"image/jpeg",
			"name":"tv_picture",
			"uri":"textures/tv_picture.jpg"
		}
	],
	"accessors":[
		{
			"bufferView":0,
			"componentType":5126,
			"count":12,
			"max":[
				0.0717470794916153,
				0.10316937416791916,
				0.009958092123270035
			],
			"min":[
				-0.0717470794916153,
				-0.10316937416791916,
				-0.009958092123270035
			],
			"type":"VEC3"
		},
		{
			"bufferView":1,
			"componentType":5126,
			"count":12,
			"type":"VEC3"
		},
		{
			"bufferView":2,
			"componentType":5126,
			"count":12,
			"type":"VEC2"
		},
		{
			"bufferView":3,
			"componentType":5123,
			"count":18,
			"type":"SCALAR"
		},
		{
			"bufferView":4,
			"componentType":5126,
			"count":12,
			"max":[
				0.06868091970682144,
				0.09876033663749695,
				0.009532526135444641
			],
			"min":[
				-0.06868091970682144,
				-0.09876033663749695,
				-0.009532526135444641
			],
			"type":"VEC3"
		},
		{
			"bufferView":5,
			"componentType":5126,
			"count":12,
			"type":"VEC3"
		},
		{
			"bufferView":6,
			"componentType":5126,
			"count":12,
			"type":"VEC2"
		},
		{
			"bufferView":7,
			"componentType":5126,
			"count":9,
			"max":[
				0.07416483014822006,
				0.10474398732185364,
				0.012238443829119205
			],
			"min":[
				-0.07402743399143219,
				-0.10474398732185364,
				-0.012238443829119205
			],
			"type":"VEC3"
		},
		{
			"bufferView":8,
			"componentType":5126,
			"count":9,
			"type":"VEC3"
		},
		{
			"bufferView":9,
			"componentType":5126,
			"count":9,
			"type":"VEC2"
		},
		{
			"bufferView":10,
			"componentType":5123,
			"count":18,
			"type":"SCALAR"
		},
		{
			"bufferView":11,
			"componentType":5126,
			"count":44,
			"max":[
				0.07416483014822006,
				0.10474398732185364,
				0.012238443829119205
			],
			"min":[
				-0.07402743399143219,
				-0.10474398732185364,
				-0.012238443829119205
			],
			"type":"VEC3"
		},
		{
			"bufferView":12,
			"componentType":5126,
			"count":44,
			"type":"VEC3"
		},
		{
			"bufferView":13,
			"componentType":5126,
			"count":44,
			"type":"VEC2"
		},
		{
			"bufferView":14,
			"componentType":5123,
			"count":66,
			"type":"SCALAR"
		},
		{
			"bufferView":15,
			"componentType":5126,
			"count":12,
			"max":[
				0.07099533826112747,
				0.10026765614748001,
				0.011715425178408623
			],
			"min":[
				-0.07086381316184998,
				-0.10026765614748001,
				-0.011715425178408623
			],
			"type":"VEC3"
		},
		{
			"bufferView":16,
			"componentType":5126,
			"count":12,
			"type":"VEC3"
		},
		{
			"bufferView":17,
			"componentType":5126,
			"count":12,
			"type":"VEC2"
		},
		{
			"bufferView":18,
			"componentType":5123,
			"count":18,
			"type":"SCALAR"
		},
		{
			"bufferView":19,
			"componentType":5126,
			"count":44,
			"max":[
				0.07099533826112747,
				0.10026765614748001,
				0.011715425178408623
			],
			"min":[
				-0.07086381316184998,
				-0.10026765614748001,
				-0.011715425178408623
			],
			"type":"VEC3"
		},
		{
			"bufferView":20,
			"componentType":5126,
			"count":44,
			"type":"VEC3"
		},
		{
			"bufferView":21,
			"componentType":5126,
			"count":44,
			"type":"VEC2"
		},
		{
			"bufferView":22,
			"componentType":5123,
			"count":66,
			"type":"SCALAR"
		},
		{
			"bufferView":23,
			"componentType":5126,
			"count":12,
			"max":[
				0.0717470794916153,
				0.10316937416791916,
				0.006968501955270767
			],
			"min":[
				-0.0717470794916153,
				-0.10316937416791916,
				-0.012947683222591877
			],
			"type":"VEC3"
		},
		{
			"bufferView":24,
			"componentType":5126,
			"count":12,
			"type":"VEC3"
		},
		{
			"bufferView":25,
			"componentType":5126,
			"count":12,
			"type":"VEC2"
		},
		{
			"bufferView":26,
			"componentType":5126,
			"count":9,
			"max":[
				0.07416482269763947,
				0.10474397987127304,
				0.009248853661119938
			],
			"min":[
				-0.07402742654085159,
				-0.10474397987127304,
				-0.015228033065795898
			],
			"type":"VEC3"
		},
		{
			"bufferView":27,
			"componentType":5126,
			"count":9,
			"type":"VEC3"
		},
		{
			"bufferView":28,
			"componentType":5126,
			"count":9,
			"type":"VEC2"
		},
		{
			"bufferView":29,
			"componentType":5126,
			"count":44,
			"max":[
				0.07416482269763947,
				0.10474397987127304,
				0.009248853661119938
			],
			"min":[
				-0.07402742654085159,
				-0.10474397987127304,
				-0.015228033065795898
			],
			"type":"VEC3"
		},
		{
			"bufferView":30,
			"componentType":5126,
			"count":44,
			"type":"VEC3"
		},
		{
			"bufferView":31,
			"componentType":5126,
			"count":44,
			"type":"VEC2"
		},
		{
			"bufferView":32,
			"componentType":5126,
			"count":24,
			"max":[
				0.6000000238418579,
				0.2559086084365845,
				0.3499999940395355
			],
			"min":[
				0,
				0,
				0
			],
			"type":"VEC3"
		},
		{
			"bufferView":33,
			"componentType":5126,
			"count":24,
			"type":"VEC3"
		},
		{
			"bufferView":34,
			"componentType":5123,
			"count":120,
			"type":"SCALAR"
		},
		{
			"bufferView":35,
			"componentType":5126,
			"count":318,
			"max":[
				1.5003149509429932,
				0.1772182285785675,
				0.008487354964017868
			],
			"min":[
				-0.2994999289512634,
				-0.07567351311445236,
				-0.009512645192444324
			],
			"type":"VEC3"
		},
		{
			"bufferView":36,
			"componentType":5126,
			"count":318,
			"type":"VEC3"
		},
		{
			"bufferView":37,
			"componentType":5123,
			"count":1728,
			"type":"SCALAR"
		},
		{
			"bufferView":38,
			"componentType":5126,
			"count":48,
			"max":[
				0.6000000238418579,
				0.2559086084365845,
				0.3499999940395355
			],
			"min":[
				0,
				0,
				0
			],
			"type":"VEC3"
		},
		{
			"bufferView":39,
			"componentType":5126,
			"count":48,
			"type":"VEC3"
		},
		{
			"bufferView":40,
			"componentType":5123,
			"count":84,
			"type":"SCALAR"
		},
		{
			"bufferView":41,
			"componentType":5126,
			"count":48,
			"max":[
				0.6000000238418579,
				0.2559086084365845,
				0.3499999940395355
			],
			"min":[
				0,
				0,
				0
			],
			"type":"VEC3"
		},
		{
			"bufferView":42,
			"componentType":5126,
			"count":48,
			"type":"VEC3"
		},
		{
			"bufferView":43,
			"componentType":5126,
			"count":34,
			"max":[
				1.004508376121521,
				1.0079772472381592,
				1.01475989818573
			],
			"min":[
				-0.8892937898635864,
				-1.5900087356567383,
				-0.9375578165054321
			],
			"type":"VEC3"
		},
		{
			"bufferView":44,
			"componentType":5126,
			"count":34,
			"type":"VEC3"
		},
		{
			"bufferView":45,
			"componentType":5126,
			"count":34,
			"type":"VEC2"
		},
		{
			"bufferView":46,
			"componentType":5123,
			"count":96,
			"type":"SCALAR"
		},
		{
			"bufferView":47,
			"componentType":5126,
			"count":64,
			"max":[
				0.9099998474121094,
				0.27590858936309814,
				0.1844998300075531
			],
			"min":[
				-0.9099999666213989,
				0,
				-0.18449997901916504
			],
			"type":"VEC3"
		},
		{
			"bufferView":48,
			"componentType":5126,
			"count":64,
			"type":"VEC3"
		},
		{
			"bufferView":49,
			"componentType":5126,
			"count":64,
			"type":"VEC2"
		},
		{
			"bufferView":50,
			"componentType":5123,
			"count":96,
			"type":"SCALAR"
		},
		{
			"bufferView":51,
			"componentType":5126,
			"count":316,
			"max":[
				0.04580051451921463,
				0.06631309539079666,
				0.10878578573465347
			],
			"min":[
				-0.01864376664161682,
				-5.98374754190445e-08,
				-0.11053933203220367
			],
			"type":"VEC3"
		},
		{
			"bufferView":52,
			"componentType":5126,
			"count":316,
			"type":"VEC3"
		},
		{
			"bufferView":53,
			"componentType":5126,
			"count":316,
			"type":"VEC2"
		},
		{
			"bufferView":54,
			"componentType":5123,
			"count":1866,
			"type":"SCALAR"
		},
		{
			"bufferView":55,
			"componentType":5126,
			"count":1662,
			"max":[
				0.6443825960159302,
				0.3454357981681824,
				0.00025794655084609985
			],
			"min":[
				-0.5669142007827759,
				-0.3490569591522217,
				-0.04825776815414429
			],
			"type":"VEC3"
		},
		{
			"bufferView":56,
			"componentType":5126,
			"count":1662,
			"type":"VEC3"
		},
		{
			"bufferView":57,
			"componentType":5126,
			"count":1662,
			"type":"VEC2"
		},
		{
			"bufferView":58,
			"componentType":5123,
			"count":4956,
			"type":"SCALAR"
		},
		{
			"bufferView":59,
			"componentType":5126,
			"count":6,
			"max":[
				0.6367400288581848,
				0.3377932906150818,
				1.4901161193847656e-08
			],
			"min":[
				-0.5592716932296753,
				-0.3377932906150818,
				-1.4901161193847656e-08
			],
			"type":"VEC3"
		},
		{
			"bufferView":60,
			"componentType":5126,
			"count":6,
			"type":"VEC3"
		},
		{
			"bufferView":61,
			"componentType":5126,
			"count":6,
			"type":"VEC2"
		},
		{
			"bufferView":62,
			"componentType":5123,
			"count":12,
			"type":"SCALAR"
		}
	],
	"bufferViews":[
		{
			"buffer":0,
			"byteLength":144,
			"byteOffset":0,
			"target":34962
		},
		{
			"buffer":0,
			"byteLength":144,
			"byteOffset":144,
			"target":34962
		},
		{
			"buffer":0,
			"byteLength":96,
			"byteOffset":288,
			"target":34962
		},
		{
			"buffer":0,
			"byteLength":36,
			"byteOffset":384,
			"target":34963
		},
		{
			"buffer":0,
			"byteLength":144,
			"byteOffset":420,
			"target":34962
		},
		{
			"buffer":0,
			"byteLength":144,
			"byteOffset":564,
			"target":34962
		},
		{
			"buffer":0,
			"byteLength":96,
			"byteOffset":708,
			"target":34962
		},
		{
			"buffer":0,
			"byteLength":108,
			"byteOffset":804,
			"target":34962
		},
		{
			"buffer":0,
			"byteLength":108,
			"byteOffset":912,
			"target":34962
		},
		{
			"buffer":0,
			"byteLength":72,
			"byteOffset":1020,
			"target":34962
		},
		{
			"buffer":0,
			"byteLength":36,
			"byteOffset":1092,
			"target":34963
		},
		{
			"buffer":0,
			"byteLength":528,
			"byteOffset":1128,
			"target":34962
		},
		{
			"buffer":0,
			"byteLength":528,
			"byteOffset":1656,
			"target":34962
		},
		{
			"buffer":0,
			"byteLength":352,
			"byteOffset":2184,
			"target":34962
		},
		{
			"buffer":0,
			"byteLength":132,
			"byteOffset":2536,
			"target":34963
		},
		{
			"buffer":0,
			"byteLength":144,
			"byteOffset":2668,
			"target":34962
		},
		{
			"buffer":0,
			"byteLength":144,
			"byteOffset":2812,
			"target":34962
		},
		{
			"buffer":0,
			"byteLength":96,
			"byteOffset":2956,
			"target":34962
		},
		{
			"buffer":0,
			"byteLength":36,
			"byteOffset":3052,
			"target":34963
		},
		{
			"buffer":0,
			"byteLength":528,
			"byteOffset":3088,
			"target":34962
		},
		{
			"buffer":0,
			"byteLength":528,
			"byteOffset":3616,
			"target":34962
		},
		{
			"buffer":0,
			"byteLength":352,
			"byteOffset":4144,
			"target":34962
		},
		{
			"buffer":0,
			"byteLength":132,
			"byteOffset":4496,
			"target":34963
		},
		{
			"buffer":0,
			"byteLength":144,
			"byteOffset":4628,
			"target":34962
		},
		{
			"buffer":0,
			"byteLength":144,
			"byteOffset":4772,
			"target":34962
		},
		{
			"buffer":0,
			"byteLength":96,
			"byteOffset":4916,
			"target":34962
		},
		{
			"buffer":0,
			"byteLength":108,
			"byteOffset":5012,
			"target":34962
		},
		{
			"buffer":0,
			"byteLength":108,
			"byteOffset":5120,
			"target":34962
		},
		{
			"buffer":0,
			"byteLength":72,
			"byteOffset":5228,
			"target":34962
		},
		{
			"buffer":0,
			"byteLength":528,
			"byteOffset":5300,
			"target":34962
		},
		{
			"buffer":0,
			"byteLength":528,
			"byteOffset":5828,
			"target":34962
		},
		{
			"buffer":0,
			"byteLength":352,
			"byteOffset":6356,
			"target":34962
		},
		{
			"buffer":0,
			"byteLength":288,
			"byteOffset":6708,
			"target":34962
		},
		{
			"buffer":0,
			"byteLength":288,
			"byteOffset":6996,
			"target":34962
		},
		{
			"buffer":0,
			"byteLength":240,
			"byteOffset":7284,
			"target":34963
		},
		{
			"buffer":0,
			"byteLength":3816,
			"byteOffset":7524,
			"target":34962
		},
		{
			"buffer":0,
			"byteLength":3816,
			"byteOffset":11340,
			"target":34962
		},
		{
			"buffer":0,
			"byteLength":3456,
			"byteOffset":15156,
			"target":34963
		},
		{
			"buffer":0,
			"byteLength":576,
			"byteOffset":18612,
			"target":34962
		},
		{
			"buffer":0,
			"byteLength":576,
			"byteOffset":19188,
			"target":34962
		},
		{
			"buffer":0,
			"byteLength":168,
			"byteOffset":19764,
			"target":34963
		},
		{
			"buffer":0,
			"byteLength":576,
			"byteOffset":19932,
			"target":34962
		},
		{
			"buffer":0,
			"byteLength":576,
			"byteOffset":20508,
			"target":34962
		},
		{
			"buffer":0,
			"byteLength":408,
			"byteOffset":21084,
			"target":34962
		},
		{
			"buffer":0,
			"byteLength":408,
			"byteOffset":21492,
			"target":34962
		},
		{
			"buffer":0,
			"byteLength":272,
			"byteOffset":21900,
			"target":34962
		},
		{
			"buffer":0,
			"byteLength":192,
			"byteOffset":22172,
			"target":34963
		},
		{
			"buffer":0,
			"byteLength":768,
			"byteOffset":22364,
			"target":34962
		},
		{
			"buffer":0,
			"byteLength":768,
			"byteOffset":23132,
			"target":34962
		},
		{
			"buffer":0,
			"byteLength":512,
			"byteOffset":23900,
			"target":34962
		},
		{
			"buffer":0,
			"byteLength":192,
			"byteOffset":24412,
			"target":34963
		},
		{
			"buffer":0,
			"byteLength":3792,
			"byteOffset":24604,
			"target":34962
		},
		{
			"buffer":0,
			"byteLength":3792,
			"byteOffset":28396,
			"target":34962
		},
		{
			"buffer":0,
			"byteLength":2528,
			"byteOffset":32188,
			"target":34962
		},
		{
			"buffer":0,
			"byteLength":3732,
			"byteOffset":34716,
			"target":34963
		},
		{
			"buffer":0,
			"byteLength":19944,
			"byteOffset":38448,
			"target":34962
		},
		{
			"buffer":0,
			"byteLength":19944,
			"byteOffset":58392,
			"target":34962
		},
		{
			"buffer":0,
			"byteLength":13296,
			"byteOffset":78336,
			"target":34962
		},
		{
			"buffer":0,
			"byteLength":9912,
			"byteOffset":91632,
			"target":34963
		},
		{
			"buffer":0,
			"byteLength":72,
			"byteOffset":101544,
			"target":34962
		},
		{
			"buffer":0,
			"byteLength":72,
			"byteOffset":101616,
			"target":34962
		},
		{
			"buffer":0,
			"byteLength":48,
			"byteOffset":101688,
			"target":34962
		},
		{
			"buffer":0,
			"byteLength":24,
			"byteOffset":101736,
			"target":34963
		}
	],
	"samplers":[
		{
			"magFilter":9729,
			"minFilter":9987
		}
	],
	"buffers":[
		{
			"byteLength":101760,
			"uri":"tv.bin"
		}
	]
}
